HIERARCHY
ROOT Pelvis
{
	OFFSET 0.000000 0.000000 0.000000
	CHANNELS 6 Xposition Yposition Zposition Xrotation Yrotation Zrotation
	JOINT LeftUpLeg_virtual
	{
		OFFSET 0.000000 0.000000 0.000000
		CHANNELS 3 Xrotation Yrotation Zrotation
		JOINT LeftUpLeg
		{
			OFFSET 18.735201 -5.666702 -4.541200
			CHANNELS 3 Xrotation Yrotation Zrotation
			JOINT LeftLeg
			{
				OFFSET -0.021200 -31.938179 0.493100
				CHANNELS 3 Xrotation Yrotation Zrotation
				JOINT LeftFoot
				{
					OFFSET 0.021200 -31.938179 -4.336299
					CHANNELS 3 Xrotation Yrotation Zrotation
					JOINT LeftToeBase
					{
						OFFSET 0.943001 -26.722000 15.023500
						CHANNELS 3 Xrotation Yrotation Zrotation
						End Site
						{
							OFFSET 0 0 0
						}
					}
				}
			}
		}
	}
	JOINT RightUpLeg_virtual
	{
		OFFSET 0.000000 0.000000 0.000000
		CHANNELS 3 Xrotation Yrotation Zrotation
		JOINT RightUpLeg
		{
			OFFSET -18.735201 -5.666702 -4.541200
			CHANNELS 3 Xrotation Yrotation Zrotation
			JOINT RightLeg
			{
				OFFSET 0.018946 -31.938133 0.493100
				CHANNELS 3 Xrotation Yrotation Zrotation
				JOINT RightFoot
				{
					OFFSET -0.018946 -31.938126 -4.336299
					CHANNELS 3 Xrotation Yrotation Zrotation
					JOINT RightToeBase
					{
						OFFSET -0.943001 -26.722004 15.023500
						CHANNELS 3 Xrotation Yrotation Zrotation
						End Site
						{
							OFFSET 0 0 0
						}
					}
				}
			}
		}
	}
	JOINT Hips_virtual
	{
		OFFSET 0.000000 0.000000 0.000000
		CHANNELS 3 Xrotation Yrotation Zrotation
		JOINT Hips
		{
			OFFSET -0.000000 -0.000000 -0.000000
			CHANNELS 3 Xrotation Yrotation Zrotation
			JOINT Spine
			{
				OFFSET 0.000000 10.199997 -0.299500
				CHANNELS 3 Xrotation Yrotation Zrotation
				JOINT Spine1
				{
					OFFSET 0.000000 11.900002 -1.516600
					CHANNELS 3 Xrotation Yrotation Zrotation
					JOINT Spine2
					{
						OFFSET 0.000000 13.600006 -2.842500
						CHANNELS 3 Xrotation Yrotation Zrotation
						JOINT Neck_virtual
						{
							OFFSET 0.000000 0.000000 0.000000
							CHANNELS 3 Xrotation Yrotation Zrotation
							JOINT Neck
							{
								OFFSET 0.000000 9.624100 -2.890100
								CHANNELS 3 Xrotation Yrotation Zrotation
								JOINT Head
								{
									OFFSET 0.000000 14.068802 -1.351900
									CHANNELS 3 Xrotation Yrotation Zrotation
									End Site
									{
										OFFSET 0 0 0
									}
								}
							}
						}
						JOINT LeftShoulder_virtual
						{
							OFFSET 0.000000 0.000000 0.000000
							CHANNELS 3 Xrotation Yrotation Zrotation
							JOINT LeftShoulder
							{
								OFFSET 15.263000 10.923401 -0.547700
								CHANNELS 3 Xrotation Yrotation Zrotation
								JOINT LeftArm
								{
									OFFSET 25.438599 -2.830597 -13.032500
									CHANNELS 3 Xrotation Yrotation Zrotation
									JOINT LeftForeArm
									{
										OFFSET 29.960503 0.000000 0.000000
										CHANNELS 3 Xrotation Yrotation Zrotation
										JOINT LeftHand
										{
											OFFSET 27.849251 0.000000 0.000000
											CHANNELS 3 Xrotation Yrotation Zrotation
											End Site
											{
												OFFSET 0 0 0
											}
										}
									}
								}
							}
						}
						JOINT RightShoulder_virtual
						{
							OFFSET 0.000000 0.000000 0.000000
							CHANNELS 3 Xrotation Yrotation Zrotation
							JOINT RightShoulder
							{
								OFFSET -15.263000 10.923401 -0.547700
								CHANNELS 3 Xrotation Yrotation Zrotation
								JOINT RightArm
								{
									OFFSET -25.438599 -2.830597 -13.032500
									CHANNELS 3 Xrotation Yrotation Zrotation
									JOINT RightForeArm
									{
										OFFSET -29.960503 0.000000 0.000000
										CHANNELS 3 Xrotation Yrotation Zrotation
										JOINT RightHand
										{
											OFFSET -27.849251 0.000000 0.000000
											CHANNELS 3 Xrotation Yrotation Zrotation
											End Site
											{
												OFFSET 0 0 0
											}
										}
									}
								}
							}
						}
					}
				}
			}
		}
	}
}
MOTION
Frames: 5
Frame Time: 0.03333333
-2.783123 92.711021 -1.709249 0.000000 0.000000 0.000000 9.171855 -9.252148 -4.729169 -27.019697 10.494347 9.760818 33.899752 2.046813 1.543424 -14.085402 1.444521 -1.709649 0.000000 0.000000 0.000000 4.591302 -4.092389 3.131517 -24.419564 -6.522889 -11.805282 35.513036 -5.372086 -0.263041 -14.286078 -8.836592 6.957116 0.000000 0.000000 0.000000 2.754255 5.627082 1.287099 -25.117570 -7.444580 -1.186848 18.799368 2.986005 -4.154134 11.162354 1.269925 -2.949321 0.000000 0.000000 0.000000 18.679666 2.501516 -3.529973 6.647244 0.396023 -1.232481 0.000000 0.000000 0.000000 15.016241 1.152341 -3.174984 3.661068 -13.556382 -15.786799 -0.610130 -27.805190 -40.278073 12.103079 -61.589209 6.436716 0.000000 0.000000 0.000000 13.629000 5.434805 0.966553 4.130400 19.933226 8.313640 24.836018 31.432397 27.899774 18.252979 53.653417 -7.313337 0.000000 0.000000 0.000000 
-2.474092 92.808517 -1.523142 0.000000 0.000000 0.000000 9.364808 -8.865727 -4.962698 -26.768920 10.700463 9.531695 33.192424 2.038341 1.683424 -14.602673 1.386869 -1.503782 0.000000 0.000000 0.000000 4.639379 -4.242331 3.035289 -24.393317 -6.546383 -11.941750 35.247587 -5.243570 -0.249541 -14.460026 -8.735536 7.063639 0.000000 0.000000 0.000000 2.407298 5.071137 1.422009 -24.843618 -6.934080 -0.389451 18.127185 2.947132 -4.251358 10.636238 1.293279 -2.990686 0.000000 0.000000 0.000000 18.086937 2.498116 -3.544504 6.341353 0.436703 -1.243005 0.000000 0.000000 0.000000 14.420954 1.196488 -3.088805 3.859462 -12.952967 -15.162824 0.593579 -26.566384 -40.193891 11.887313 -60.035614 6.152961 0.000000 0.000000 0.000000 13.236426 5.223811 0.744784 4.417494 19.314938 7.844554 25.374279 31.280825 28.250743 18.600606 53.919173 -7.495276 0.000000 0.000000 0.000000 
-2.154419 92.883545 -1.381325 0.000000 0.000000 0.000000 9.549321 -8.532308 -5.187735 -26.549219 10.891704 9.316283 32.579015 2.029414 1.807759 -15.052909 1.333422 -1.321497 0.000000 0.000000 0.000000 4.666403 -4.427213 2.928776 -24.403916 -6.573180 -12.095593 35.038474 -5.121765 -0.226655 -14.602016 -8.642257 7.181806 0.000000 0.000000 0.000000 2.110140 4.567794 1.534422 -24.429608 -6.396366 0.347763 17.445323 2.894259 -4.343376 10.113815 1.308764 -3.028052 0.000000 0.000000 0.000000 17.461382 2.487134 -3.548902 6.021487 0.470031 -1.248667 0.000000 0.000000 0.000000 13.833023 1.225550 -2.992421 4.038482 -12.427061 -14.516976 2.040613 -25.192914 -40.144372 11.719600 -58.215048 5.830096 0.000000 0.000000 0.000000 12.835881 5.004831 0.526322 4.678438 18.652526 7.372866 26.038940 31.046382 28.646693 18.964691 54.049496 -7.627794 0.000000 0.000000 0.000000 
-1.827183 92.942657 -1.276943 0.000000 0.000000 0.000000 9.721915 -8.251530 -5.403452 -26.361832 11.066988 9.114451 32.055423 2.020461 1.915811 -15.438770 1.285118 -1.163594 0.000000 0.000000 0.000000 4.671384 -4.640748 2.812064 -24.449769 -6.601394 -12.264721 34.871107 -5.008028 -0.196144 -14.720789 -8.558206 7.307871 0.000000 0.000000 0.000000 1.859862 4.118491 1.623820 -23.890567 -5.826256 1.012310 16.767326 2.834800 -4.431551 9.603195 1.319715 -3.061900 0.000000 0.000000 0.000000 16.811601 2.470402 -3.542763 5.692375 0.496031 -1.249251 0.000000 0.000000 0.000000 13.259764 1.243720 -2.887672 4.202823 -11.972125 -13.855226 3.698449 -23.713437 -40.144474 11.615343 -56.170834 5.485976 0.000000 0.000000 0.000000 12.425683 4.784606 0.315307 4.904793 17.970800 6.916250 26.763519 30.727682 29.118469 19.305567 54.029385 -7.680415 0.000000 0.000000 0.000000 
-1.498054 92.993729 -1.201491 0.000000 0.000000 0.000000 9.880101 -8.020012 -5.608910 -26.206194 11.226000 8.926134 31.613619 2.011273 2.007379 -15.765803 1.242170 -1.030585 0.000000 0.000000 0.000000 4.656841 -4.872633 2.686652 -24.524225 -6.629008 -12.445144 34.731075 -4.903645 -0.160279 -14.825113 -8.484447 7.437211 0.000000 0.000000 0.000000 1.651102 3.722808 1.690871 -23.249850 -5.221846 1.597164 16.105043 2.775411 -4.515777 9.111381 1.329004 -3.092117 0.000000 0.000000 0.000000 16.148285 2.449797 -3.524364 5.359539 0.514850 -1.243799 0.000000 0.000000 0.000000 12.707256 1.255086 -2.776886 4.356176 -11.579860 -13.186309 5.516928 -22.158727 -40.218462 11.575991 -53.956087 5.127291 0.000000 0.000000 0.000000 12.008210 4.568557 0.114344 5.094387 17.290441 6.485326 27.501859 30.326006 29.675550 19.597476 53.848378 -7.637781 0.000000 0.000000 0.000000 
